<svg xmlns="http://www.w3.org/2000/svg" enable-background="new 0 0 64 64" viewBox="0 0 64 64" id="multiple-choice">
  <path d="M16.21,18.03v7.78c0,1.23,1,2.23,2.24,2.23h8.17c1.23,0,2.24-0.99,2.24-2.23v-7.78c0-1.23-1-2.24-2.24-2.24h-8.17
		C17.21,15.79,16.21,16.8,16.21,18.03z M24.63,24.7c-0.06,0.03-0.13,0.04-0.19,0.04c-0.2,0-0.38-0.12-0.46-0.31l-0.74-1.78h-1.76
		l-0.73,1.78c-0.11,0.25-0.39,0.37-0.65,0.27c-0.25-0.1-0.36-0.39-0.27-0.64l0.87-2.1l1.2-2.92c0.07-0.19,0.26-0.31,0.45-0.31
		c0.2,0,0.37,0.12,0.45,0.31l1.21,2.92l0.88,2.1C24.99,24.31,24.87,24.61,24.63,24.7z"></path>
  <polygon points="21.88 21.67 22.83 21.67 22.35 20.52"></polygon>
  <path d="M26.61 29.56h-7.52c-1.6 0-2.88 1.29-2.88 2.88v6.49c0 1.59 1.29 2.88 2.88 2.88h7.52c1.23 0 2.24-1 2.24-2.24v-7.78C28.85 30.55 27.84 29.56 26.61 29.56zM24.65 36.91c0 .96-.78 1.74-1.74 1.74H20.5c-.27 0-.49-.22-.49-.49v-5c0-.28.23-.49.49-.49h2.41c.96 0 1.74.78 1.74 1.74 0 .49-.21.94-.53 1.25C24.45 35.98 24.65 36.42 24.65 36.91zM26.61 42.84h-8.17c-1.23 0-2.24 1-2.24 2.24v7.78c0 1.23 1 2.23 2.24 2.23h8.17c1.23 0 2.24-.99 2.24-2.23v-7.78C28.85 43.84 27.84 42.84 26.61 42.84zM25.28 51.03c-.59.64-1.42 1-2.27 1-1.68 0-3.06-1.38-3.06-3.07s1.38-3.07 3.06-3.07c.84 0 1.61.32 2.21.93.19.19.19.5-.01.69-.19.2-.5.19-.7 0-.39-.4-.93-.63-1.5-.63-1.14 0-2.08.94-2.08 2.09s.94 2.09 2.08 2.09c.59 0 1.15-.25 1.55-.68.19-.21.5-.22.7-.03C25.45 50.52 25.47 50.84 25.28 51.03z"></path>
  <path d="M22.91 33.65h-1.92v1.52h1.92c.42 0 .76-.33.76-.76C23.67 34 23.34 33.65 22.91 33.65zM22.91 36.16h-1.92v1.52h1.92c.42 0 .76-.33.76-.76C23.67 36.5 23.34 36.16 22.91 36.16zM31.48 27.96h15.8c.43 0 .79-.35.79-.79 0-.43-.35-.79-.79-.79h-15.8c-.43 0-.79.35-.79.79C30.69 27.6 31.05 27.96 31.48 27.96zM38.35 25.25c.15.15.36.24.57.24l.04 0c.23-.01.44-.12.58-.31l4.4-5.8c.26-.35.19-.84-.15-1.1-.14-.1-.3-.16-.48-.16-.25 0-.48.11-.63.31l-3.84 5.06-1.58-1.66c-.15-.15-.36-.24-.57-.24-.2 0-.4.08-.54.22-.31.3-.33.8-.03 1.11L38.35 25.25zM31.48 54.73h15.8c.43 0 .79-.35.79-.79 0-.43-.35-.79-.79-.79h-15.8c-.43 0-.79.35-.79.79C30.69 54.37 31.05 54.73 31.48 54.73zM42.7 45.21l-3.84 5.06-1.58-1.66c-.15-.16-.36-.24-.57-.24-.2 0-.4.08-.54.22-.31.3-.33.8-.03 1.11l2.22 2.33c.15.15.36.24.57.24l.04 0c.23-.01.44-.12.58-.31l4.4-5.8c.26-.35.19-.84-.15-1.1-.14-.1-.3-.16-.47-.16C43.08 44.89 42.85 45.01 42.7 45.21zM31.48 41.3h15.8c.43 0 .79-.35.79-.79s-.35-.79-.79-.79h-15.8c-.43 0-.79.35-.79.79S31.05 41.3 31.48 41.3zM35.93 38.18c0 .21.08.41.23.56.15.15.35.23.55.23.21 0 .41-.08.56-.23l1.95-1.96 1.96 1.95c.15.15.35.23.55.23.21 0 .41-.08.56-.23.15-.15.23-.35.23-.56 0-.21-.08-.41-.23-.56l-1.96-1.95 1.95-1.96c.15-.15.23-.35.23-.56 0-.21-.08-.41-.23-.56-.15-.15-.35-.23-.56-.23-.21 0-.41.08-.56.23l-1.95 1.96-1.96-1.95c-.15-.15-.35-.23-.56-.23-.21 0-.41.08-.56.23-.15.15-.23.35-.23.56 0 .21.08.41.23.56l1.96 1.95-1.95 1.96C36.01 37.78 35.93 37.97 35.93 38.18z"></path>
  <path d="M52.56,6.4H41.63V5.51c0-0.79-0.65-1.44-1.44-1.44h-3.63C36.3,1.78,34.36,0,32,0s-4.31,1.78-4.57,4.08H23.8
		c-0.79,0-1.44,0.65-1.44,1.44V6.4H11.43c-1.45,0-2.62,1.17-2.62,2.61v52.37c0,1.45,1.17,2.62,2.62,2.62h41.13
		c1.45,0,2.63-1.17,2.63-2.62V9.01C55.19,7.57,54.01,6.4,52.56,6.4z M23.8,14.37h16.39c0.81,0,1.44-0.63,1.44-1.43v-2.06h8.42
		c0.59,0,1.07,0.48,1.07,1.07v46.98c0,0.59-0.48,1.06-1.07,1.06H13.93c-0.59,0-1.07-0.47-1.07-1.06V11.95
		c0-0.59,0.48-1.07,1.07-1.07h8.43v2.06C22.36,13.73,23.01,14.37,23.8,14.37z"></path>
</svg>
